:SAMPLES-PER-SECOND 24
:FULLY-SPECIFIED
:DEGREES
65
root  -7.16566 38.1154 -12.1968 12.7639 -16.6705 -17.2195
RightUpLeg  -8.92526 -12.9863 -9.08569
RightLeg  25.8687 24.6926 12.3541
RightFoot  -2.70069 -2.02059 26.102
RightToes  -1.74623e-010 0 -2.59999e-017
Spine  7.39356 2.86615 -7.41924
Spine1  16.6328 -1.60998 11.4131
HEad  -2.58611 -6.86015 1.86205
LeftShoulder1  2.37205 -4.43209 -23.655
LeftArm  17.2159 0.698126 -38.0288
LeftForeArm  59.306 -77.5165 -50.5225
LeftHand  -0.464584 1.562 13.9993
RightShoulder  3.2402 5.55043 29.8779
RightArm  -13.0286 -11.4586 23.4514
RightForeArm  38.7706 75.1794 43.6404
RightHand  -1.14565 1.32243 -19.8189
LeftUpLeg  -22.4291 -4.14797 27.1726
LeftLeg  39.2976 -12.3553 -10.2618
LeftFoot  -20.7996 -0.405698 -6.43368
LeftToes  -6.27559e-011 -2.10356e-011 8.24929e-012
66
root  -8.43333 37.1695 -13.048 8.60461 -6.65759 -11.531
RightUpLeg  -3.83891 -10.2195 -8.82631
RightLeg  22.9984 12.3527 5.49012
RightFoot  -13.2407 0.202666 17.5568
RightToes  -1.74623e-010 0 -2.59999e-017
Spine  8.27159 1.69968 -3.19003
Spine1  15.1104 -1.28575 8.03783
HEad  -0.368679 4.86282 -7.09714
LeftShoulder1  2.24196 -4.25865 -22.5882
LeftArm  16.8473 0.00683702 -35.9576
LeftForeArm  62.2558 -78.1422 -55.1391
LeftHand  -0.459481 1.96419 15.4558
RightShoulder  2.90881 5.14158 27.6816
RightArm  -9.25691 -9.94517 26.4781
RightForeArm  49.978 77.2861 53.4743
RightHand  -1.02774 0.884401 -19.0257
LeftUpLeg  -29.9003 -1.63843 22.6387
LeftLeg  46.0458 -9.04581 -9.50244
LeftFoot  -18.0096 -0.352517 -7.89192
LeftToes  -6.27559e-011 -2.10356e-011 8.24929e-012
67
root  -9.51996 36.2849 -13.8901 4.78094 -0.28775 -9.13879
RightUpLeg  -1.62929 -11.4848 -8.30758
RightLeg  28.8024 3.15514 1.72606
RightFoot  -23.3298 1.41725 14.814
RightToes  -1.74623e-010 0 -2.59999e-017
Spine  8.96428 1.3036 4.45432
Spine1  16.5208 0.683486 2.2989
HEad  -1.40961 20.7189 -15.7286
LeftShoulder1  2.12376 -3.74226 -23.0452
LeftArm  13.0285 -2.3164 -33.5219
LeftForeArm  69.2241 -78.998 -62.5834
LeftHand  -0.260205 3.65119 16.8806
RightShoulder  2.88055 5.0822 27.58
RightArm  -6.40935 -5.20201 26.4379
RightForeArm  53.662 77.7736 56.5423
RightHand  -0.929207 0.540452 -18.1991
LeftUpLeg  -33.3679 1.63671 20.4908
LeftLeg  50.8031 -8.25972 -10.2852
LeftFoot  -15.9893 -0.237456 -8.20683
LeftToes  -6.27559e-011 -2.10356e-011 8.24929e-012
68
root  -10.4316 36.102 -14.4884 2.26074 3.96902 -7.13602
RightUpLeg  -0.347052 -18.2125 -10.9065
RightLeg  33.6946 5.99756 4.07395
RightFoot  -27.1581 1.71698 13.6257
RightToes  -1.74623e-010 0 -2.59999e-017
Spine  8.42517 1.74209 8.90289
Spine1  20.1479 2.73649 -1.73986
HEad  -4.51789 37.6278 -23.2319
LeftShoulder1  2.15574 -3.38134 -25.1338
LeftArm  5.75452 -2.15084 -34.4547
LeftForeArm  76.5225 -79.5166 -66.5273
LeftHand  -0.0940367 4.85951 18.6865
RightShoulder  3.09342 5.42189 28.7207
RightArm  -5.71856 0.0419836 26.6754
RightForeArm  48.1541 76.3258 46.9424
RightHand  -0.715571 -0.552987 -17.1282
LeftUpLeg  -32.692 2.73856 19.3066
LeftLeg  49.3966 -11.265 -13.2701
LeftFoot  -15.1893 -0.224212 -9.3912
LeftToes  -6.27559e-011 -2.10356e-011 8.24929e-012
69
root  -11.0834 36.5859 -14.6257 2.22473 10.3119 -4.6601
RightUpLeg  2.83811 -26.7528 -14.3947
RightLeg  32.2173 8.65163 5.55199
RightFoot  -24.9905 1.27892 12.034
RightToes  -1.74623e-010 0 -2.59999e-017
Spine  7.316 2.51686 8.72209
Spine1  20.2568 3.46 -1.17017
HEad  -7.5123 51.4468 -28.6605
LeftShoulder1  2.12674 -3.23403 -25.4004
LeftArm  0.68097 2.80987 -39.7689
LeftForeArm  85.8826 -80.0718 -76.0901
LeftHand  0.0013957 5.42921 21.6377
RightShoulder  3.27521 5.64601 29.8866
RightArm  -6.73266 -0.804458 31.5107
RightForeArm  53.5218 76.1572 43.4427
RightHand  -0.500825 -1.69168 -15.5613
LeftUpLeg  -31.7226 1.88286 16.9945
LeftLeg  42.9582 -16.2394 -15.1556
LeftFoot  -13.023 -0.0563334 -9.30858
LeftToes  -6.27559e-011 -2.10356e-011 8.24929e-012
70
root  -11.5358 37.3779 -14.4719 3.47748 16.8632 -1.8241
RightUpLeg  6.63075 -29.3841 -15.3309
RightLeg  25.7783 3.95993 1.85588
RightFoot  -22.3987 1.16451 13.5507
RightToes  -1.74623e-010 0 -2.59999e-017
Spine  6.70128 3.46586 8.01581
Spine1  18.2311 4.79911 -1.8562
HEad  -13.5717 59.4082 -34.2192
LeftShoulder1  1.9956 -3.04056 -24.2787
LeftArm  0.727155 7.95388 -42.8626
LeftForeArm  94.667 -80.003 -92.418
LeftHand  0.0456772 5.6202 24.3485
RightShoulder  3.43485 5.72438 31.3344
RightArm  -6.92527 -5.97464 38.5503
RightForeArm  76.3204 79.2384 60.0829
RightHand  -0.414022 -2.01339 -14.0438
LeftUpLeg  -30.3606 3.5967 12.9136
LeftLeg  34.1518 -15.3807 -10.6299
LeftFoot  -8.65787 0.221945 -7.25664
LeftToes  -6.27559e-011 -2.10356e-011 8.24929e-012
71
root  -11.7908 38.1889 -14.2561 4.33868 22.621 1.35547
RightUpLeg  10.5949 -27.6993 -15.8295
RightLeg  19.2557 -3.45518 -1.20377
RightFoot  -18.6759 0.88188 15.621
RightToes  -1.74623e-010 0 -2.59999e-017
Spine  6.85027 3.95971 8.4585
Spine1  18.0153 6.77368 -5.88171
HEad  -22.1505 62.0785 -40.8637
LeftShoulder1  1.95461 -2.94824 -24.0692
LeftArm  3.12305 10.7478 -40.8143
LeftForeArm  104.847 -79.4223 -106.386
LeftHand  0.0329917 5.58194 23.224
RightShoulder  3.54366 5.84405 32.0281
RightArm  -3.24482 -9.35712 44.3305
RightForeArm  106.217 80.6504 90.3805
RightHand  -0.450999 -1.55466 -13.5216
LeftUpLeg  -27.4265 7.67713 7.38595
LeftLeg  27.2134 -5.04232 -2.42406
LeftFoot  -4.53325 0.196156 -2.84474
LeftToes  -6.27559e-011 -2.10356e-011 8.24929e-012
